<?xml version="1.0" encoding="UTF-8" standalone="no"?>
<!-- Created with Inkscape (http://www.inkscape.org/) -->

<svg
   width="256"
   height="256"
   viewBox="0 0 67.733332 67.733333"
   version="1.1"
   id="svg5"
   xmlSpace="preserve"
   xmlnsXlink="http://www.w3.org/1999/xlink"
   xmlns="http://www.w3.org/2000/svg"
   xmlnsSvg="http://www.w3.org/2000/svg"><defs
     id="defs2"><linearGradient
       id="linearGradient15844"><stop
         style="stop-color:#5c9d30;stop-opacity:1;"
         offset="0"
         id="stop15840" /><stop
         style="stop-color:#1e732f;stop-opacity:1;"
         offset="1"
         id="stop15842" /></linearGradient><linearGradient
       id="linearGradient11783"><stop
         style="stop-color:#f82b07;stop-opacity:1;"
         offset="0"
         id="stop11779" /><stop
         style="stop-color:#ea9b0d;stop-opacity:1;"
         offset="1"
         id="stop11781" /></linearGradient><linearGradient
       id="linearGradient8015"><stop
         style="stop-color:#05bdef;stop-opacity:1;"
         offset="0"
         id="stop8011" /><stop
         style="stop-color:#08519d;stop-opacity:1;"
         offset="1"
         id="stop8013" /></linearGradient><linearGradient
       id="linearGradient5943"><stop
         style="stop-color:#77b332;stop-opacity:1;"
         offset="0"
         id="stop5939" /><stop
         style="stop-color:#3a842e;stop-opacity:1;"
         offset="1"
         id="stop5941" /></linearGradient><linearGradient
       xlinkHref="#linearGradient8015"
       id="linearGradient5945"
       x1="49.945312"
       y1="84.359543"
       x2="79.995575"
       y2="84.359543"
       gradientUnits="userSpaceOnUse"
       gradientTransform="rotate(-119.23067,68.482279,89.170654)" /><linearGradient
       xlinkHref="#linearGradient5943"
       id="linearGradient8008"
       gradientUnits="userSpaceOnUse"
       x1="49.945312"
       y1="84.359543"
       x2="79.995575"
       y2="84.359543"
       gradientTransform="translate(-0.05029964,-0.08479706)" /><linearGradient
       xlinkHref="#linearGradient11783"
       id="linearGradient11776"
       gradientUnits="userSpaceOnUse"
       gradientTransform="rotate(118.6846,68.529793,89.237776)"
       x1="49.945312"
       y1="84.359543"
       x2="79.995575"
       y2="84.359543" /><linearGradient
       xlinkHref="#linearGradient15844"
       id="linearGradient15846"
       x1="65.298508"
       y1="78.092072"
       x2="69.778816"
       y2="100.26235"
       gradientUnits="userSpaceOnUse" /></defs><g
     id="layer1"><g
       id="g22138"
       transform="matrix(1.840724,0,0,1.840724,-91.099924,-130.78177)"><path
         id="path15110"
         style="font-variation-settings:normal;opacity:1;vector-effect:none;fill:url(#linearGradient15846);fill-opacity:1;stroke:none;stroke-width:0.264583;stroke-linecap:butt;stroke-linejoin:miter;stroke-miterlimit:4;stroke-dasharray:none;stroke-dashoffset:0;stroke-opacity:1;-inkscape-stroke:none;stop-color:#000000;stop-opacity:1"
         d="m 67.509574,78.294962 0.04547,2.072083 c -5.011376,0.271531 -8.256654,7.19903 -0.09043,10.153385 v 4.652054 C 66.756741,95.099335 65.962862,94.968281 65.659557,93.864037 65.435455,92.94148 64.99975,92.659121 64.125284,92.600548 l -1.985408,0.04496 c 0.409531,4.696943 3.472508,4.823471 5.460131,5.279781 -0.138354,2.234451 1.067743,1.611757 1.805058,1.985408 l -0.04496,-2.030367 c 8.168265,-0.802403 6.468003,-9.197532 0,-10.243819 l 0.04496,-4.557861 c 1.000241,0.16472 1.598366,0.590695 1.850016,1.263489 0.215961,0.630213 0.325828,1.24421 1.264006,1.308447 h 2.211234 C 74.491908,84.435 74.963014,81.323141 69.360107,80.461239 69.514239,78.625735 68.381061,78.649012 67.509574,78.294962 Z m 0.06098,4.811075 0.0021,4.037997 c -2.750844,-0.880255 -2.805072,-3.2905 -0.0021,-4.037997 z m 1.917712,7.9375 c 2.803002,0.747497 2.713671,3.295719 -0.03721,4.175973 z" /><path
         style="font-variation-settings:normal;vector-effect:none;fill:url(#linearGradient11776);fill-opacity:1;stroke:none;stroke-width:0.264583;stroke-linecap:butt;stroke-linejoin:miter;stroke-miterlimit:4;stroke-dasharray:none;stroke-dashoffset:0;stroke-opacity:1;-inkscape-stroke:none;stop-color:#000000"
         d="M 71.035602,71.480306 C 86.967709,75.749564 86.661191,100.08385 68.25964,102.0215 90.488545,104.0159 91.664244,72.802376 71.035602,71.480306 Z"
         id="path295-9" /><path
         style="font-variation-settings:normal;opacity:1;vector-effect:none;fill:url(#linearGradient5945);fill-opacity:1;stroke:none;stroke-width:0.264583;stroke-linecap:butt;stroke-linejoin:miter;stroke-miterlimit:4;stroke-dasharray:none;stroke-dashoffset:0;stroke-opacity:1;-inkscape-stroke:none;stop-color:#000000;stop-opacity:1"
         d="M 82.231891,100.65178 C 70.152004,111.88276 49.697259,98.697344 57.829967,82.077157 44.332801,99.851529 70.154376,117.42743 82.231891,100.65178 Z"
         id="path295" /><path
         style="font-variation-settings:normal;vector-effect:none;fill:url(#linearGradient8008);fill-opacity:1;stroke:none;stroke-width:0.264583;stroke-linecap:butt;stroke-linejoin:miter;stroke-miterlimit:4;stroke-dasharray:none;stroke-dashoffset:0;stroke-opacity:1;-inkscape-stroke:none;stop-color:#000000"
         d="M 51.698541,95.47806 C 47.796651,79.452034 69.291638,68.04077 79.824007,83.253946 70.904039,62.795798 42.956864,76.74649 51.698541,95.47806 Z"
         id="path295-7" /></g></g></svg>
