<?xml version="1.0" standalone="no"?>
<!DOCTYPE svg PUBLIC "-//W3C//DTD SVG 20010904//EN"
 "http://www.w3.org/TR/2001/REC-SVG-20010904/DTD/svg10.dtd">
<svg version="1.0" xmlns="http://www.w3.org/2000/svg"
 width="700.000000pt" height="700.000000pt" viewBox="0 0 700.000000 700.000000"
 preserveAspectRatio="xMidYMid meet">
<metadata>
Created by potrace 1.14, written by Peter Selinger 2001-2017
</metadata>
<g transform="translate(0.000000,700.000000) scale(0.100000,-0.100000)"
fill="#000000" stroke="none">
<path d="M4120 6916 c0 -4 96 -34 117 -38 42 -5 359 -135 458 -186 134 -69
357 -208 440 -274 82 -65 155 -128 209 -178 310 -290 552 -639 705 -1018 81
-200 160 -459 185 -612 41 -248 51 -363 51 -600 -1 -155 -8 -295 -19 -355 -2
-11 -7 -47 -11 -80 -6 -49 -44 -244 -59 -305 -35 -136 -95 -314 -153 -449 -47
-110 -132 -277 -164 -323 -11 -14 -19 -28 -19 -31 0 -3 -30 -50 -66 -104 -433
-639 -1111 -1064 -1929 -1212 -108 -19 -209 -35 -232 -36 -6 0 -14 -3 -18 -7
-4 -3 20 -8 52 -10 79 -6 582 -1 613 5 14 3 56 8 94 12 58 5 231 32 311 49
463 96 929 324 1260 617 216 191 453 485 566 699 13 25 28 52 34 60 20 27 122
254 158 350 67 181 141 471 162 635 4 28 8 60 10 73 25 159 25 631 1 757 -2
11 -7 45 -11 75 -4 30 -9 64 -11 75 -2 10 -6 36 -9 56 -10 64 -62 270 -95 374
-111 345 -282 664 -506 943 -71 89 -272 295 -343 352 -24 19 -62 50 -84 69
-135 110 -381 259 -563 340 -110 49 -341 136 -385 145 -13 3 -46 12 -74 20
-49 15 -250 60 -310 69 -16 3 -46 7 -65 11 -51 8 -116 16 -190 22 -36 2 -75 7
-87 10 -13 2 -23 2 -23 0z"/>
<path d="M2880 6593 c-365 -34 -731 -134 -1065 -292 -332 -158 -602 -349 -870
-616 -198 -198 -324 -358 -465 -590 -46 -77 -146 -278 -180 -365 -23 -56 -99
-283 -105 -310 -2 -8 -13 -53 -24 -100 -11 -47 -22 -103 -25 -125 -4 -22 -8
-51 -11 -65 -20 -101 -30 -248 -29 -430 0 -210 10 -326 45 -515 6 -33 12 -69
14 -80 23 -144 170 -587 230 -692 l16 -28 -6 30 c-3 17 -8 41 -11 55 -7 33
-33 186 -38 225 -27 199 -28 650 -1 755 2 8 6 37 10 64 3 28 12 80 20 116 8
36 16 77 19 90 73 365 303 835 571 1165 144 177 372 400 527 514 35 25 65 48
68 51 5 6 150 102 215 142 22 14 72 42 110 63 39 21 88 48 110 60 53 28 261
117 350 149 195 69 406 120 630 152 130 18 490 25 625 11 569 -58 1071 -272
1530 -652 184 -151 427 -412 564 -605 55 -77 59 -81 40 -35 -32 79 -155 312
-221 422 -73 121 -215 328 -260 379 -16 18 -54 63 -85 100 -66 80 -255 267
-343 340 -33 27 -62 51 -65 54 -3 3 -43 33 -90 67 -198 142 -434 268 -635 339
-229 82 -395 121 -635 148 -95 11 -443 17 -530 9z"/>
<path d="M3432 5426 c3 -132 1 -196 -7 -197 -5 0 -19 -2 -30 -4 -11 -2 -38 -6
-60 -9 -250 -29 -529 -195 -684 -406 -117 -159 -168 -300 -175 -485 -7 -169
50 -350 158 -500 141 -197 429 -397 724 -505 l62 -23 0 -444 0 -445 -27 6
c-16 3 -46 8 -68 12 -86 15 -161 62 -201 126 -13 21 -35 71 -48 112 -42 128
-75 172 -156 209 -41 19 -64 21 -245 22 -110 0 -215 -1 -234 -4 l-34 -3 6 -59
c15 -142 69 -334 122 -433 137 -257 351 -396 726 -470 77 -15 173 -37 177 -40
2 -3 5 -42 7 -88 9 -188 57 -239 252 -263 23 -3 53 -9 67 -15 l25 -9 -5 193
-5 193 73 8 c40 5 75 9 78 10 3 1 32 7 65 14 306 64 564 215 696 408 232 337
157 808 -182 1145 -173 172 -427 306 -662 349 l-68 13 5 429 c3 236 7 431 9
434 8 8 129 -28 178 -52 90 -46 142 -109 183 -223 34 -94 48 -121 83 -154 50
-48 72 -51 326 -53 l238 -2 -5 36 c-3 20 -8 61 -11 91 -22 196 -59 309 -135
424 -146 218 -410 354 -831 430 l-36 6 -5 88 c-10 165 -75 238 -264 295 -27 8
-57 18 -67 22 -18 8 -19 -1 -15 -189z m8 -1107 l0 -380 -22 6 c-79 23 -197 94
-259 155 -82 82 -111 142 -113 230 -2 143 104 267 294 343 110 45 100 82 100
-354z m459 -1154 c412 -168 390 -564 -41 -740 -52 -21 -58 -22 -59 -7 0 9 0
121 1 247 1 127 2 296 3 378 1 169 -4 162 96 122z"/>
<path d="M1528 4823 c-113 -155 -242 -364 -325 -528 -148 -291 -271 -662 -308
-930 -3 -22 -7 -49 -10 -60 -11 -51 -19 -215 -19 -365 0 -214 11 -320 50 -518
77 -381 243 -750 487 -1081 38 -51 81 -107 95 -124 84 -97 115 -131 200 -218
52 -52 121 -117 154 -145 33 -27 67 -55 75 -63 46 -44 253 -190 370 -260 420
-251 865 -399 1325 -438 159 -14 481 -7 598 11 14 3 59 10 100 16 427 69 841
248 1212 527 127 95 175 138 343 307 119 120 335 371 335 391 0 3 -42 -30 -92
-73 -51 -43 -115 -95 -143 -115 -27 -20 -55 -41 -60 -45 -17 -14 -166 -112
-170 -112 -2 0 -21 -12 -42 -26 -64 -43 -351 -180 -468 -223 -391 -142 -801
-199 -1217 -168 -90 7 -101 9 -258 33 -195 30 -506 119 -695 199 -291 123
-644 344 -854 535 -256 233 -426 437 -586 699 -121 200 -248 499 -301 708 -18
73 -44 195 -49 228 -3 22 -10 65 -15 95 -31 182 -33 487 -5 740 2 19 11 78 20
130 9 52 18 104 19 115 10 57 69 274 102 370 50 151 95 263 155 389 27 56 17
55 -23 -1z"/>
</g>
</svg>
